<?xml version="1.0" encoding="UTF-8"?>
<svg version="1.1" xmlns="http://www.w3.org/2000/svg" width="581" height="261">
<path d="M0 0 C3.63 0 7.26 0 11 0 C11.01458252 0.81678223 11.02916504 1.63356445 11.04418945 2.47509766 C11.11886923 6.1921976 11.21546612 9.90841919 11.3125 13.625 C11.33505859 14.91019531 11.35761719 16.19539063 11.38085938 17.51953125 C11.41630859 18.76347656 11.45175781 20.00742188 11.48828125 21.2890625 C11.51446533 22.43068848 11.54064941 23.57231445 11.56762695 24.74853516 C12.18910123 29.42204982 13.56522446 32.8754462 17.3125 35.8125 C22.83217389 38.25142567 26.48508657 38.17273167 32.0703125 36.27734375 C34.98840254 34.34573354 36.27136241 32.02302486 38 29 C38.63224723 25.63122166 38.63224723 25.63122166 38.609375 22.0703125 C38.64160156 20.78125 38.67382812 19.4921875 38.70703125 18.1640625 C38.7217723 16.81771285 38.73609 15.4713585 38.75 14.125 C38.77818712 12.75517097 38.80811837 11.38537665 38.83984375 10.015625 C38.91037757 6.67702398 38.96315985 3.33911485 39 0 C42.63 0 46.26 0 50 0 C50.0743563 7.54392357 50.12870056 15.08763208 50.16479492 22.63183594 C50.17984779 25.19632688 50.20029461 27.76079223 50.22631836 30.32519531 C50.26285467 34.01894463 50.27976194 37.71235246 50.29296875 41.40625 C50.30845261 42.5461438 50.32393646 43.6860376 50.33988953 44.86047363 C50.34175944 53.77721289 48.99415014 60.78426914 42.703125 67.45703125 C36.32171507 73.23835447 30.04420261 73.6442604 21.5625 73.375 C13.55042343 72.53162352 9.4846311 68.99118707 4.34765625 63 C3 61 3 61 2 57 C5.63 56.01 9.26 55.02 13 54 C13.53625 54.94875 14.0725 55.8975 14.625 56.875 C17.37507655 60.49352178 18.574666 61.23407681 23 62 C27.28999503 62.05899797 30.21604179 61.49423452 33.875 59.1875 C37.8475481 55.09811225 38.34980999 51.63498009 39 46 C38.13375 46.495 37.2675 46.99 36.375 47.5 C30.00741423 50.21043875 22.19716652 50.06947031 15.5625 48.37890625 C9.11132086 45.54391542 3.65247387 39.49975579 1 33 C0.15275779 28.78454543 -0.11810815 24.80271074 -0.09765625 20.5078125 C-0.09443359 19.30898437 -0.09121094 18.11015625 -0.08789062 16.875 C-0.07951172 15.6375 -0.07113281 14.4 -0.0625 13.125 C-0.05798828 11.86429688 -0.05347656 10.60359375 -0.04882812 9.3046875 C-0.0370796 6.20307614 -0.02065167 3.10156275 0 0 Z " fill="#D64341" transform="translate(269,70)"/>
<path d="M0 0 C4.34489761 3.59403181 7.24119034 8.35247728 9.01171875 13.6640625 C10.20998656 30.2237307 10.20998656 30.2237307 5.01171875 36.6640625 C0.18669085 41.98991608 -5.27086162 45.12234924 -12.4375 45.9453125 C-18.7434157 46.17707663 -21.5300996 45.08588062 -27.98828125 42.6640625 C-28.31828125 51.5740625 -28.64828125 60.4840625 -28.98828125 69.6640625 C-32.61828125 69.6640625 -36.24828125 69.6640625 -39.98828125 69.6640625 C-40.11240237 62.01438227 -40.20286995 54.3652956 -40.26293945 46.71484375 C-40.28799574 44.11545594 -40.32205017 41.51613797 -40.36547852 38.91699219 C-40.42651809 35.16844391 -40.4545816 31.42083172 -40.4765625 27.671875 C-40.50236893 26.52042999 -40.52817535 25.36898499 -40.55476379 24.18264771 C-40.5576319 15.82575998 -38.89732379 9.19100827 -33.34077454 2.75613403 C-24.40418421 -6.11997879 -10.39234232 -6.3809355 0 0 Z M-27.92578125 12.7890625 C-29.52630129 17.11988143 -29.63831098 21.10655071 -28.98828125 25.6640625 C-27.19260935 29.46259922 -25.6921181 31.18417374 -22.23828125 33.5390625 C-18.3060112 34.9002329 -15.09965237 35.41083849 -10.98828125 34.6640625 C-7.14503356 32.63366749 -4.03708102 30.5459989 -1.98828125 26.6640625 C-0.60585808 20.64064726 -0.80372049 17.18396782 -3.98828125 11.6640625 C-7.59521428 8.23747612 -10.25678647 6.83055238 -15.23828125 6.3515625 C-20.72076569 6.8084362 -24.14794132 8.64562516 -27.92578125 12.7890625 Z " fill="#A9BC39" transform="translate(365.98828125,73.3359375)"/>
<path d="M0 0 C3.3 0 6.6 0 10 0 C10.33 14.52 10.66 29.04 11 44 C15.95 39.38 20.9 34.76 26 30 C34.05236486 23.09797297 34.05236486 23.09797297 41.4375 23.625 C42.16904297 23.65207031 42.90058594 23.67914063 43.65429688 23.70703125 C45.43750127 23.77696083 47.21916294 23.88455558 49 24 C49 26 49 26 47.63671875 27.375 C46.99347656 27.91125 46.35023438 28.4475 45.6875 29 C42.06032205 32.08017086 38.51291172 35.22869449 35 38.4375 C34.05125 39.30246094 33.1025 40.16742188 32.125 41.05859375 C31.42375 41.69925781 30.7225 42.33992188 30 43 C30.61944885 46.44073469 31.92514165 48.55940652 34.01953125 51.3359375 C34.62990234 52.15320313 35.24027344 52.97046875 35.86914062 53.8125 C36.51044922 54.658125 37.15175781 55.50375 37.8125 56.375 C49 71.26113101 49 71.26113101 49 74 C44.55454237 75.26274627 40.29434777 75.96833305 36 74 C29.86222042 68.35117763 23.65113746 59.95341239 21 52 C15.51837606 55.45075101 15.51837606 55.45075101 11 60 C10.30220618 63.49272252 10.30220618 63.49272252 10.25 67.25 C10.19328125 68.51328125 10.1365625 69.7765625 10.078125 71.078125 C10.05234375 72.04234375 10.0265625 73.0065625 10 74 C6.7 74 3.4 74 0 74 C0 49.58 0 25.16 0 0 Z " fill="#BEC634" transform="translate(443,45)"/>
<path d="M0 0 C5.55694785 3.81689347 8.89674793 8.97795863 10.93359375 15.328125 C10.6003418 17.2734375 10.6003418 17.2734375 9.93359375 19.328125 C9.61032104 20.37033203 9.61032104 20.37033203 9.28051758 21.43359375 C8.10227683 24.00935307 7.11977449 25.49661581 4.93359375 27.328125 C-0.1602483 28.49560858 -5.1884134 28.40351429 -10.37890625 28.328125 C-11.80145752 28.33622148 -13.22399319 28.34790297 -14.64648438 28.36328125 C-18.1205777 28.39305144 -21.59239196 28.37378982 -25.06640625 28.328125 C-18.0259433 35.61252802 -11.92806512 35.66534198 -2.19140625 35.953125 C-0.58652344 36.01113281 -0.58652344 36.01113281 1.05078125 36.0703125 C3.6781153 36.16414586 6.30583027 36.24720522 8.93359375 36.328125 C8.93359375 39.628125 8.93359375 42.928125 8.93359375 46.328125 C4.96850236 46.42803039 1.00391212 46.50007334 -2.9621582 46.54785156 C-4.96396676 46.57753281 -6.96542544 46.62839558 -8.96679688 46.6796875 C-17.80112346 46.76869835 -24.4643396 46.12348547 -31.40625 40.3984375 C-32.19708984 39.43550781 -32.19708984 39.43550781 -33.00390625 38.453125 C-33.82181641 37.49792969 -33.82181641 37.49792969 -34.65625 36.5234375 C-38.85552503 29.98606197 -38.76923263 22.83395029 -38.06640625 15.328125 C-36.37953722 8.22832812 -32.16274389 3.24409989 -26.06640625 -0.671875 C-17.7530833 -4.06298491 -8.04573052 -4.19263755 0 0 Z M-22.06640625 10.328125 C-24.85502276 12.90041473 -24.85502276 12.90041473 -26.06640625 16.328125 C-17.81640625 16.328125 -9.56640625 16.328125 -1.06640625 16.328125 C-3.11480822 12.23132105 -4.32319385 10.79524226 -8.06640625 8.328125 C-13.26869346 6.59402926 -17.40413103 7.70931509 -22.06640625 10.328125 Z " fill="#D64341" transform="translate(181.06640625,72.671875)"/>
<path d="M0 0 C3.63 0 7.26 0 11 0 C11 8.91 11 17.82 11 27 C13.31 26.01 15.62 25.02 18 24 C24.88769136 23.13806794 32.15485419 22.91199253 38.25390625 26.59765625 C43.1779007 30.55227371 47.03446792 34.95140815 49 41 C49.22705078 44.50512695 49.22705078 44.50512695 49.1953125 48.48828125 C49.1924826 49.19147995 49.18965271 49.89467865 49.18673706 50.6191864 C49.17560151 52.85046892 49.15050997 55.08134017 49.125 57.3125 C49.1149616 58.83137438 49.10583726 60.3502551 49.09765625 61.86914062 C49.07568413 65.57955921 49.04120047 69.28973942 49 73 C45.7 73 42.4 73 39 73 C38.98541748 72.21351074 38.97083496 71.42702148 38.95581055 70.61669922 C38.88110637 67.03565042 38.78451793 63.45551089 38.6875 59.875 C38.65366211 58.01875 38.65366211 58.01875 38.61914062 56.125 C38.58369141 54.92617187 38.54824219 53.72734375 38.51171875 52.4921875 C38.47244263 50.84259033 38.47244263 50.84259033 38.43237305 49.15966797 C37.94498534 45.59796744 36.69706929 43.14351535 35 40 C35 39.34 35 38.68 35 38 C28.81319438 35.48136306 24.41058669 34.49052147 18.0078125 36.65234375 C15.05951969 38.63125624 13.75476109 40.92748815 12 44 C11.36775277 47.36877834 11.36775277 47.36877834 11.390625 50.9296875 C11.35839844 52.21875 11.32617188 53.5078125 11.29296875 54.8359375 C11.2782277 56.18228715 11.26391 57.5286415 11.25 58.875 C11.22181288 60.24482903 11.19188163 61.61462335 11.16015625 62.984375 C11.08962243 66.32297602 11.03684015 69.66088515 11 73 C7.37 73 3.74 73 0 73 C0 48.91 0 24.82 0 0 Z " fill="#D64341" transform="translate(89,46)"/>
<path d="M0 0 C2.61049148 1.89429302 4.40370442 3.5873461 5.96484375 6.42578125 C6.01873712 8.09157634 6.02591382 9.76023383 5.96484375 11.42578125 C-0.07813538 11.74259763 -3.87565406 11.82019058 -9.03515625 8.42578125 C-14.82542884 7.21169184 -18.48769936 7.46105693 -24.03515625 9.42578125 C-23.68728917 11.4011487 -23.68728917 11.4011487 -23.03515625 13.42578125 C-20.0982694 14.89422468 -17.16801211 14.89176974 -13.91015625 15.23828125 C-6.49386432 16.14361012 -1.32505075 17.62937092 4.46484375 22.55078125 C6.71088961 26.85570248 6.81097078 30.676798 5.96484375 35.42578125 C3.08438463 40.61060766 -0.54752541 42.76325347 -6.09375 44.73046875 C-15.25745945 46.8966577 -24.89740976 46.42534195 -33.03515625 41.42578125 C-35.35130836 39.5087846 -36.42178208 38.06095906 -38.03515625 35.42578125 C-38.03515625 33.77578125 -38.03515625 32.12578125 -38.03515625 30.42578125 C-34.40515625 30.42578125 -30.77515625 30.42578125 -27.03515625 30.42578125 C-27.03515625 31.08578125 -27.03515625 31.74578125 -27.03515625 32.42578125 C-17.41258949 34.5192253 -17.41258949 34.5192253 -8.03515625 32.42578125 C-8.03515625 31.10578125 -8.03515625 29.78578125 -8.03515625 28.42578125 C-11.4393649 27.29104503 -14.52436643 27.07634427 -18.09765625 26.73828125 C-25.00262842 25.94222766 -30.74454096 24.08152271 -36.03515625 19.42578125 C-38.67844104 15.31028721 -38.80253713 11.17034046 -38.03515625 6.42578125 C-35.13591462 1.3037877 -31.55608697 -0.92483729 -26.04296875 -2.875 C-16.9903744 -4.97943427 -8.1003315 -4.7847216 0 0 Z " fill="#B3C137" transform="translate(533.03515625,73.57421875)"/>
<path d="M0 0 C0.88772095 -0.00945648 1.77544189 -0.01891296 2.69006348 -0.02865601 C3.64119019 -0.02258331 4.59231689 -0.01651062 5.57226562 -0.01025391 C6.55594116 -0.01312408 7.5396167 -0.01599426 8.55310059 -0.01895142 C10.63094662 -0.02099111 12.70881189 -0.01546791 14.78662109 -0.00292969 C17.96690816 0.013125 21.14592433 -0.00278193 24.32617188 -0.02197266 C26.34570593 -0.01999021 28.36523919 -0.0161465 30.38476562 -0.01025391 C31.81145569 -0.01936295 31.81145569 -0.01936295 33.26696777 -0.02865601 C34.15468872 -0.01919952 35.04240967 -0.00974304 35.95703125 0 C36.73550415 0.00238678 37.51397705 0.00477356 38.31604004 0.00723267 C41.07978283 0.49410539 42.4615947 1.45876283 44.47851562 3.38818359 C44.98022461 6.54272461 44.98022461 6.54272461 44.97460938 10.39208984 C44.97606461 11.07117905 44.97751984 11.75026825 44.97901917 12.44993591 C44.97736139 13.88309019 44.96581324 15.31626249 44.94506836 16.74926758 C44.91606782 18.94672896 44.92446752 21.14178443 44.9375 23.33935547 C44.93126373 24.73194535 44.92287365 26.1245276 44.91210938 27.51708984 C44.90236084 28.78625244 44.8926123 30.05541504 44.88256836 31.36303711 C44.74923096 32.36133545 44.61589355 33.35963379 44.47851562 34.38818359 C41.30494939 36.50389441 40.50635946 36.64239711 36.87109375 36.6628418 C35.94002808 36.67237381 35.0089624 36.68190582 34.04968262 36.69172668 C33.04651001 36.69081528 32.0433374 36.68990387 31.00976562 36.68896484 C29.46198425 36.69539253 29.46198425 36.69539253 27.88293457 36.70195007 C25.70077244 36.70769445 23.51859116 36.70819285 21.33642578 36.70385742 C17.99153126 36.7006959 14.6475196 36.72416125 11.30273438 36.74951172 C9.18424591 36.75178447 7.06575506 36.75248832 4.94726562 36.75146484 C3.94409302 36.76067459 2.94092041 36.76988434 1.90734863 36.77937317 C0.97628296 36.77314438 0.04521729 36.76691559 -0.9140625 36.76049805 C-1.733302 36.76112747 -2.5525415 36.7617569 -3.39660645 36.7624054 C-6.04879959 36.29531574 -6.93020751 35.53231667 -8.52148438 33.38818359 C-8.92553711 30.34130859 -8.92553711 30.34130859 -8.95507812 26.63818359 C-8.96031998 25.98366211 -8.96556183 25.32914063 -8.97096252 24.65478516 C-8.97737701 23.27296363 -8.97605303 21.89108747 -8.9675293 20.50927734 C-8.95901187 18.39500836 -8.98779169 16.28343605 -9.01953125 14.16943359 C-9.02114325 12.8256844 -9.02056575 11.48193043 -9.01757812 10.13818359 C-9.01943115 8.91615234 -9.02128418 7.69412109 -9.02319336 6.43505859 C-8.52148438 3.38818359 -8.52148438 3.38818359 -6.77272034 1.72201538 C-4.25283473 0.22901172 -2.90148 0.00889587 0 0 Z M-1.52148438 6.38818359 C-1.52148438 9.35818359 -1.52148438 12.32818359 -1.52148438 15.38818359 C3.75851562 15.38818359 9.03851563 15.38818359 14.47851562 15.38818359 C14.47851562 12.41818359 14.47851562 9.44818359 14.47851562 6.38818359 C9.19851563 6.38818359 3.91851562 6.38818359 -1.52148438 6.38818359 Z M21.47851562 6.38818359 C21.47851562 9.35818359 21.47851562 12.32818359 21.47851562 15.38818359 C26.75851562 15.38818359 32.03851563 15.38818359 37.47851562 15.38818359 C37.47851562 12.41818359 37.47851562 9.44818359 37.47851562 6.38818359 C32.19851563 6.38818359 26.91851562 6.38818359 21.47851562 6.38818359 Z M-1.52148438 21.38818359 C-1.54210937 22.85255859 -1.56273437 24.31693359 -1.58398438 25.82568359 C-1.59558594 26.64939453 -1.6071875 27.47310547 -1.61914062 28.32177734 C-1.75415785 30.37982297 -1.75415785 30.37982297 -0.52148438 31.38818359 C2.00900965 31.46131926 4.51156399 31.48065886 7.04101562 31.45068359 C7.75193359 31.44617188 8.46285156 31.44166016 9.1953125 31.43701172 C10.95641576 31.42519223 12.71747598 31.40725623 14.47851562 31.38818359 C14.47851562 28.08818359 14.47851562 24.78818359 14.47851562 21.38818359 C9.19851563 21.38818359 3.91851562 21.38818359 -1.52148438 21.38818359 Z M21.47851562 21.38818359 C21.47851562 24.68818359 21.47851562 27.98818359 21.47851562 31.38818359 C23.95775363 31.41503455 26.43670402 31.43494907 28.91601562 31.45068359 C29.62306641 31.4590625 30.33011719 31.46744141 31.05859375 31.47607422 C32.86545122 31.48471947 34.67239165 31.44038371 36.47851562 31.38818359 C37.7111891 30.37982297 37.7111891 30.37982297 37.57617188 28.32177734 C37.56457031 27.49806641 37.55296875 26.67435547 37.54101562 25.82568359 C37.52039063 24.36130859 37.49976563 22.89693359 37.47851562 21.38818359 C32.19851563 21.38818359 26.91851562 21.38818359 21.47851562 21.38818359 Z " fill="#828486" transform="translate(348.521484375,153.61181640625)"/>
<path d="M0 0 C1.1034375 -0.01675781 2.206875 -0.03351563 3.34375 -0.05078125 C7.84945204 0.46782059 10.37118022 1.92886762 13.23046875 5.43359375 C13.71128906 6.19800781 14.19210938 6.96242187 14.6875 7.75 C15.17605469 8.51183594 15.66460937 9.27367187 16.16796875 10.05859375 C17.37836369 12.10668138 18.46981108 14.16912116 19.5 16.3125 C17.85 16.6425 16.2 16.9725 14.5 17.3125 C14.98726562 18.0859375 14.98726562 18.0859375 15.484375 18.875 C16.83314803 22.11205527 16.76482188 24.8145369 16.75 28.3125 C16.75773437 30.1378125 16.75773437 30.1378125 16.765625 32 C16.51844315 35.08250302 16.22321871 36.78834866 14.5 39.3125 C12.04724859 40.5388757 10.4494219 40.42665314 7.7109375 40.41015625 C6.76992187 40.40693359 5.82890625 40.40371094 4.859375 40.40039062 C3.87453125 40.39201172 2.8896875 40.38363281 1.875 40.375 C0.38613281 40.36823242 0.38613281 40.36823242 -1.1328125 40.36132812 C-3.5886016 40.34952145 -6.04427104 40.333054 -8.5 40.3125 C-8.54898438 41.2303125 -8.59796875 42.148125 -8.6484375 43.09375 C-9.0534256 49.74114086 -9.58416358 55.92637859 -11.5 62.3125 C-14.14 62.3125 -16.78 62.3125 -19.5 62.3125 C-19.36722656 61.6834375 -19.23445312 61.054375 -19.09765625 60.40625 C-18.92105469 59.5503125 -18.74445313 58.694375 -18.5625 57.8125 C-18.38847656 56.9771875 -18.21445313 56.141875 -18.03515625 55.28125 C-16.35589422 45.9656358 -16.16944777 36.69584458 -15.89453125 27.25195312 C-15.85714844 26.11822266 -15.81976563 24.98449219 -15.78125 23.81640625 C-15.75095703 22.78330322 -15.72066406 21.7502002 -15.68945312 20.68579102 C-15.5 18.3125 -15.5 18.3125 -14.5 17.3125 C-16.48 16.9825 -18.46 16.6525 -20.5 16.3125 C-18.9757176 13.08372446 -17.18087608 10.14883475 -15.1875 7.1875 C-14.61386719 6.31867188 -14.04023438 5.44984375 -13.44921875 4.5546875 C-9.67284664 0.21072439 -5.53488008 0.01939794 0 0 Z M-11.5 15.3125 C-11.5 15.6425 -11.5 15.9725 -11.5 16.3125 C-8.86 16.3125 -6.22 16.3125 -3.5 16.3125 C-4.16 14.0025 -4.82 11.6925 -5.5 9.3125 C-2.86 9.3125 -0.22 9.3125 2.5 9.3125 C3.16 11.6225 3.82 13.9325 4.5 16.3125 C6.48 16.3125 8.46 16.3125 10.5 16.3125 C9.71516341 14.82969804 8.92190666 13.3513502 8.125 11.875 C7.68414062 11.05128906 7.24328125 10.22757813 6.7890625 9.37890625 C5.66581441 7.17783422 5.66581441 7.17783422 3.5 6.3125 C-4.76332806 4.91193592 -7.34560867 8.44477184 -11.5 15.3125 Z M-8.5 22.3125 C-8.5 23.3025 -8.5 24.2925 -8.5 25.3125 C-2.56 25.3125 3.38 25.3125 9.5 25.3125 C9.17 24.3225 8.84 23.3325 8.5 22.3125 C2.89 22.3125 -2.72 22.3125 -8.5 22.3125 Z M-8.5 31.3125 C-8.5 32.3025 -8.5 33.2925 -8.5 34.3125 C-2.89 34.3125 2.72 34.3125 8.5 34.3125 C8.83 33.3225 9.16 32.3325 9.5 31.3125 C3.56 31.3125 -2.38 31.3125 -8.5 31.3125 Z " fill="#828486" transform="translate(202.5,153.6875)"/>
<path d="M0 0 C2.27762739 1.4529692 4.09818394 3.06925654 5.8125 5.15625 C4.37286361 8.51540158 2.68833411 10.87249938 -0.1875 13.15625 C-2.85152632 13.07299918 -3.99002775 12.3142278 -6.0625 10.65625 C-8.89589066 8.65620953 -10.71397149 8.28984725 -14.1875 8.15625 C-18.67412841 9.04837881 -21.51708333 10.45231249 -24.6875 13.78125 C-26.60198207 18.08883465 -27.02591163 21.51593219 -26.1875 26.15625 C-24.1824912 29.9588529 -22.76063738 31.77415841 -19.1875 34.15625 C-14.29025824 35.49186139 -10.91499787 34.94021146 -6.1875 33.15625 C-4.28579946 31.67863341 -4.28579946 31.67863341 -3.1875 30.15625 C0.17165158 31.59588639 2.52874938 33.28041589 4.8125 36.15625 C4.875 38.15625 4.875 38.15625 3.8125 40.15625 C-1.18960298 45.01543575 -6.580709 46.45019649 -13.4375 46.59375 C-20.89860352 46.449122 -26.7869671 44.66282863 -32.06640625 39.21875 C-38.00442576 31.66387216 -39.25996264 24.67573796 -38.1875 15.15625 C-35.61395439 6.97171225 -31.37875451 2.63678838 -24.125 -1.65625 C-16.35476648 -4.65407846 -7.29230268 -3.75339108 0 0 Z " fill="#D64341" transform="translate(79.1875,72.84375)"/>
<path d="M0 0 C1.92578125 1.2890625 1.92578125 1.2890625 3.92578125 3.2890625 C3.81257822 6.57195026 2.64293262 7.59260737 0.36328125 10.0390625 C-0.84328125 11.1528125 -0.84328125 11.1528125 -2.07421875 12.2890625 C-4.56783446 11.08524802 -6.75564958 9.83477528 -9.07421875 8.2890625 C-13.974256 6.9526887 -17.3899811 7.33019948 -22.07421875 9.2890625 C-25.31661557 12.31999866 -26.83379622 14.46261007 -28.07421875 18.7265625 C-28.07421875 24.18457847 -26.56623176 27.75672481 -22.76171875 31.6640625 C-18.39141089 34.30657423 -15.43423885 34.57044597 -10.44921875 33.5390625 C-7.44364229 32.42588603 -5.45728466 31.3861605 -3.07421875 29.2890625 C-0.76421875 31.5990625 1.54578125 33.9090625 3.92578125 36.2890625 C1.5069505 41.12672399 -0.34096367 42.08417971 -5.08984375 44.30078125 C-11.91728 46.56169927 -19.22416604 46.34389513 -25.94921875 43.7890625 C-31.41534146 40.96036917 -35.46749358 36.44877621 -38.2421875 30.9921875 C-40.26129594 24.4324549 -40.40256304 15.15909455 -37.57421875 8.7890625 C-29.25395589 -4.72398854 -13.48451743 -7.54779863 0 0 Z " fill="#B3C137" transform="translate(434.07421875,73.7109375)"/>
<path d="M0 0 C2.64 0 5.28 0 8 0 C7.67 1.65 7.34 3.3 7 5 C14.92 5 22.84 5 31 5 C31 6.98 31 8.96 31 11 C25.06 11.33 19.12 11.66 13 12 C20.56680794 16.40784929 27.90045339 20.64846347 36 24 C36 24.33 36 24.66 36 25 C24.82739877 25.89324096 17.20724395 25.21331851 8 18 C6.63955658 16.69433953 5.29648762 15.36918786 4 14 C0.38616329 15.64910889 -2.13277274 17.7865264 -5.0234375 20.46484375 C-10.42203502 24.65782562 -14.78227315 25.41997409 -21.375 25.1875 C-22.11105469 25.17396484 -22.84710938 25.16042969 -23.60546875 25.14648438 C-25.40396743 25.11144869 -27.20208422 25.05765288 -29 25 C-27.07050004 21.14100008 -21.55984131 20.26100299 -17.7109375 18.73046875 C-13.25592768 16.790729 -13.25592768 16.790729 -7 12 C-12.94 11.67 -18.88 11.34 -25 11 C-25 9.02 -25 7.04 -25 5 C-17.08 4.67 -9.16 4.34 -1 4 C-0.67 2.68 -0.34 1.36 0 0 Z " fill="#828486" transform="translate(287,154)"/>
<path d="M0 0 C1.42892578 0.11794922 1.42892578 0.11794922 2.88671875 0.23828125 C5.3125 0.6875 5.3125 0.6875 7.3125 2.6875 C5.6625 5.6575 4.0125 8.6275 2.3125 11.6875 C0.518125 11.5946875 0.518125 11.5946875 -1.3125 11.5 C-5.46007138 11.50734083 -8.16103053 12.3911943 -11.6875 14.6875 C-15.46525446 18.85605665 -15.83016622 22.6202479 -16.00390625 28.10546875 C-16.04580078 29.35908203 -16.08769531 30.61269531 -16.13085938 31.90429688 C-16.17017578 33.21462891 -16.20949219 34.52496094 -16.25 35.875 C-16.29320992 37.21029978 -16.336825 38.54558652 -16.38085938 39.88085938 C-16.48706502 43.14963297 -16.58910997 46.41848333 -16.6875 49.6875 C-20.3175 49.6875 -23.9475 49.6875 -27.6875 49.6875 C-27.77550873 45.22929367 -27.82822922 40.77131461 -27.875 36.3125 C-27.90013672 35.06082031 -27.92527344 33.80914062 -27.95117188 32.51953125 C-28.02833436 22.69417492 -27.47745965 13.58972113 -20.4296875 6.15625 C-14.40932684 1.080789 -7.77193271 -0.71039494 0 0 Z " fill="#D64341" transform="translate(258.6875,69.3125)"/>
<path d="M0 0 C1 3 1 3 0.22265625 5.04296875 C-0.35162109 6.10451172 -0.35162109 6.10451172 -0.9375 7.1875 C-1.31777344 7.90292969 -1.69804687 8.61835937 -2.08984375 9.35546875 C-2.39019531 9.89816406 -2.69054687 10.44085938 -3 11 C-3.58007812 10.95359375 -4.16015625 10.9071875 -4.7578125 10.859375 C-10.39949528 10.59870319 -13.59161489 11.11642265 -18 15 C-20.92736898 18.97745586 -21.40388303 21.93628945 -21.51171875 26.83203125 C-21.54716797 28.12431641 -21.58261719 29.41660156 -21.61914062 30.74804688 C-21.64223681 32.10285934 -21.66501935 33.45767718 -21.6875 34.8125 C-21.72069761 36.18688117 -21.75518953 37.56123171 -21.79101562 38.93554688 C-21.87341264 42.29028234 -21.94259395 45.64475904 -22 49 C-25.63 49 -29.26 49 -33 49 C-33.1249586 44.76832516 -33.21496477 40.53766827 -33.2746582 36.3046875 C-33.29957855 34.86927552 -33.33352875 33.43398743 -33.37719727 31.99902344 C-33.66978935 22.12662243 -33.13674694 13.90828618 -26.35180664 6.10424805 C-19.00408647 -1.25512592 -9.72128689 -1.53396732 0 0 Z " fill="#D64341" transform="translate(229,70)"/>
<path d="M0 0 C20.46 0 40.92 0 62 0 C62 1.65 62 3.3 62 5 C59.69 5 57.38 5 55 5 C55.02094727 5.83249268 55.04189453 6.66498535 55.06347656 7.52270508 C55.13168816 10.61446034 55.18181724 13.70583197 55.21972656 16.7980957 C55.24971281 18.79339014 55.30053786 20.78833582 55.3515625 22.78320312 C55.36445313 24.03681641 55.37734375 25.29042969 55.390625 26.58203125 C55.41157227 27.73936768 55.43251953 28.8967041 55.45410156 30.08911133 C55 33 55 33 53.17333984 34.8762207 C50.16507333 36.43171955 47.74461718 36.39781908 44.375 36.375 C43.22773438 36.38273437 42.08046875 36.39046875 40.8984375 36.3984375 C39.94195312 36.26695312 38.98546875 36.13546875 38 36 C36 33 36 33 36 30 C39.63 30 43.26 30 47 30 C47 21.75 47 13.5 47 5 C31.49 5 15.98 5 0 5 C0 3.35 0 1.7 0 0 Z " fill="#828486" transform="translate(259,180)"/>
<path d="M0 0 C1.14210938 0.00064453 2.28421875 0.00128906 3.4609375 0.00195312 C4.64945312 0.01806641 5.83796875 0.03417969 7.0625 0.05078125 C8.84527344 0.04594727 8.84527344 0.04594727 10.6640625 0.04101562 C20.60607039 0.10273238 20.60607039 0.10273238 24.0625 2.36328125 C25.40803453 5.05435032 25.26844114 7.23493547 25.3125 10.23828125 C25.33828125 11.28757813 25.3640625 12.336875 25.390625 13.41796875 C25.00962924 16.83785927 24.50678738 17.97178694 22.0625 20.36328125 C19.10742188 20.86499023 19.10742188 20.86499023 15.53125 20.859375 C13.60345703 20.8603418 13.60345703 20.8603418 11.63671875 20.86132812 C10.96817871 20.85093506 10.29963867 20.84054199 9.61083984 20.82983398 C7.56916026 20.80087572 5.53007784 20.8092245 3.48828125 20.82226562 C-6.3767546 20.75794994 -6.3767546 20.75794994 -8.81860352 19.03930664 C-10.66266704 16.27703387 -10.37160296 13.62444309 -10.375 10.36328125 C-10.40400391 8.50703125 -10.40400391 8.50703125 -10.43359375 6.61328125 C-9.9375 3.36328125 -9.9375 3.36328125 -8.27758789 1.68286133 C-5.33513291 0.02360528 -3.36839296 -0.00962844 0 0 Z M-1.9375 6.36328125 C-2.31813221 8.68936695 -2.65019945 11.02383389 -2.9375 13.36328125 C-1.95342689 14.56824034 -1.95342689 14.56824034 -0.07983398 14.47680664 C0.71092529 14.47156982 1.50168457 14.46633301 2.31640625 14.4609375 C3.17041016 14.45771484 4.02441406 14.45449219 4.90429688 14.45117188 C6.25104492 14.43860352 6.25104492 14.43860352 7.625 14.42578125 C8.52669922 14.42126953 9.42839844 14.41675781 10.35742188 14.41210938 C12.59251314 14.4002835 14.82747437 14.38380345 17.0625 14.36328125 C17.10491723 12.0303335 17.10342937 9.69625558 17.0625 7.36328125 C16.08917739 6.16986373 16.08917739 6.16986373 14.29663086 6.24975586 C13.54776611 6.25499268 12.79890137 6.26022949 12.02734375 6.265625 C11.21845703 6.26884766 10.40957031 6.27207031 9.57617188 6.27539062 C8.72603516 6.28376953 7.87589844 6.29214844 7 6.30078125 C6.14599609 6.30529297 5.29199219 6.30980469 4.41210938 6.31445312 C2.29554337 6.32627752 0.17901315 6.34421356 -1.9375 6.36328125 Z " fill="#828486" transform="translate(273.9375,187.63671875)"/>
<path d="M0 0 C3.3 0 6.6 0 10 0 C10 16.5 10 33 10 50 C6.7 50 3.4 50 0 50 C0 33.5 0 17 0 0 Z " fill="#B4C137" transform="translate(380,69)"/>
<path d="M0 0 C2.31 0 4.62 0 7 0 C7.0694906 7.64076218 7.1228064 15.28149162 7.15543652 22.92249775 C7.17109693 26.47049936 7.19234151 30.01828487 7.22631836 33.56616211 C7.26513007 37.64438967 7.27970602 41.72239001 7.29296875 45.80078125 C7.30845261 47.07585037 7.32393646 48.35091949 7.33988953 49.66462708 C7.34011612 50.84562485 7.34034271 52.02662262 7.34057617 53.2434082 C7.34723801 54.28487503 7.35389984 55.32634186 7.36076355 56.39936829 C7 59 7 59 5.68843079 60.84147644 C2.88977714 62.76178387 0.128334 62.27876149 -3.1875 62.1875 C-4.45980469 62.16042969 -5.73210937 62.13335937 -7.04296875 62.10546875 C-8.01878906 62.07066406 -8.99460938 62.03585938 -10 62 C-10.66 60.02 -11.32 58.04 -12 56 C-8.04 56 -4.08 56 0 56 C0 37.52 0 19.04 0 0 Z " fill="#828486" transform="translate(237,154)"/>
<path d="M0 0 C0.81533203 -0.00322266 1.63066406 -0.00644531 2.47070312 -0.00976562 C8.53633903 0.04505935 8.53633903 0.04505935 11.9375 2.3125 C12.89357439 5.18072318 13.16442707 7.25494746 13.25 10.25 C13.28738281 11.10464844 13.32476562 11.95929688 13.36328125 12.83984375 C12.9375 15.3125 12.9375 15.3125 11.515625 17.6015625 C7.59798168 20.20145306 3.97105125 19.85688491 -0.625 19.75 C-1.48802734 19.75708984 -2.35105469 19.76417969 -3.24023438 19.77148438 C-9.54768593 19.70777274 -9.54768593 19.70777274 -11.8046875 17.97485352 C-13.77493778 15.37092608 -13.49638779 13.02014396 -13.5 9.8125 C-13.51933594 8.6678125 -13.53867188 7.523125 -13.55859375 6.34375 C-13.0625 3.3125 -13.0625 3.3125 -11.6015625 1.42578125 C-7.75823657 -0.25936935 -4.1479583 -0.08236613 0 0 Z M-6.0625 7.3125 C-6.22916667 9.8125 -6.22916667 9.8125 -6.0625 12.3125 C-5.02843327 13.57199049 -5.02843327 13.57199049 -2.77734375 13.41015625 C-1.86082031 13.39855469 -0.94429687 13.38695312 0 13.375 C0.91910156 13.36597656 1.83820313 13.35695312 2.78515625 13.34765625 C3.49542969 13.33605469 4.20570313 13.32445312 4.9375 13.3125 C4.9375 11.0025 4.9375 8.6925 4.9375 6.3125 C3.29175434 6.28561849 1.64588587 6.26615877 0 6.25 C-1.37478516 6.23259766 -1.37478516 6.23259766 -2.77734375 6.21484375 C-5.02843327 6.05300951 -5.02843327 6.05300951 -6.0625 7.3125 Z " fill="#828486" transform="translate(207.0625,196.6875)"/>
<path d="M0 0 C2.64 0 5.28 0 8 0 C8 5.28 8 10.56 8 16 C16.25 16 24.5 16 33 16 C32.34 17.98 31.68 19.96 31 22 C27.06745992 22.09895097 23.13540254 22.1715042 19.2019043 22.21972656 C17.20660986 22.24971281 15.21166418 22.30053786 13.21679688 22.3515625 C11.33637695 22.37089844 11.33637695 22.37089844 9.41796875 22.390625 C8.26063232 22.41157227 7.1032959 22.43251953 5.91088867 22.45410156 C3 22 3 22 1.1171875 20.24609375 C-0.09610329 17.80678533 -0.3509182 16.37618269 -0.29296875 13.671875 C-0.28330078 12.87265625 -0.27363281 12.0734375 -0.26367188 11.25 C-0.23853516 10.425 -0.21339844 9.6 -0.1875 8.75 C-0.17396484 7.90953125 -0.16042969 7.0690625 -0.14648438 6.203125 C-0.11123464 4.13514062 -0.0574302 2.06748729 0 0 Z " fill="#828486" transform="translate(352,194)"/>
<path d="M0 0 C2.31 0 4.62 0 7 0 C7 14.19 7 28.38 7 43 C4.69 43 2.38 43 0 43 C0 28.81 0 14.62 0 0 Z " fill="#828486" transform="translate(223,158)"/>
<path d="M0 0 C2.64 0 5.28 0 8 0 C8.24234375 0.76183594 8.4846875 1.52367187 8.734375 2.30859375 C10.82116793 8.73752121 13.14172658 14.87512838 16 21 C12.7 21 9.4 21 6 21 C4.99449367 18.06428063 3.99540746 15.1266423 3 12.1875 C2.71382813 11.35412109 2.42765625 10.52074219 2.1328125 9.66210938 C1.72675781 8.45844727 1.72675781 8.45844727 1.3125 7.23046875 C1.06113281 6.49207764 0.80976563 5.75368652 0.55078125 4.99291992 C0 3 0 3 0 0 Z " fill="#828486" transform="translate(383,195)"/>
<path d="M0 0 C2.64 0 5.28 0 8 0 C7.57305989 2.21039917 7.13296022 4.41825861 6.6875 6.625 C6.44386719 7.85476562 6.20023437 9.08453125 5.94921875 10.3515625 C5.02532386 13.90266468 3.7610503 16.79360589 2 20 C-0.64 20 -3.28 20 -6 20 C-5.2531799 15.57916835 -3.88289994 11.41843259 -2.4375 7.1875 C-2.20353516 6.49462891 -1.96957031 5.80175781 -1.72851562 5.08789062 C-1.15508324 3.39099886 -0.57791831 1.69536922 0 0 Z " fill="#828486" transform="translate(342,196)"/>
<path d="M0 0 C3.63 0 7.26 0 11 0 C11 4.29 11 8.58 11 13 C7.37 13 3.74 13 0 13 C0 8.71 0 4.42 0 0 Z " fill="#1C8E46" transform="translate(326,130)"/>
<path d="M0 0 C2.64 0 5.28 0 8 0 C8.83739781 2.1234016 9.66980283 4.2487728 10.5 6.375 C10.9640625 7.55835938 11.428125 8.74171875 11.90625 9.9609375 C13 13 13 13 13 15 C10.36 15 7.72 15 5 15 C2.62886517 10.03715966 0.56825653 5.54050113 0 0 Z " fill="#828486" transform="translate(364,192)"/>
<path d="M0 0 C3.63 0 7.26 0 11 0 C11 1.65 11 3.3 11 5 C7.37 5 3.74 5 0 5 C0 3.35 0 1.7 0 0 Z " fill="#349246" transform="translate(326,130)"/>
</svg>
